<svg xmlns="http://www.w3.org/2000/svg" width="88.256" height="79.43" viewBox="0 0 88.256 79.43"><g transform="translate(-3 -3)"><path d="M41.442,27.321A14.121,14.121,0,1,1,27.321,13.2,14.121,14.121,0,0,1,41.442,27.321Z" transform="translate(19.807 19.807)"/><path d="M33.89,3l-8.075,8.826H11.826A8.852,8.852,0,0,0,3,20.651V73.6a8.852,8.852,0,0,0,8.826,8.826h70.6A8.852,8.852,0,0,0,91.256,73.6V20.651a8.852,8.852,0,0,0-8.826-8.826H68.442L60.366,3ZM47.128,69.192A22.064,22.064,0,1,1,69.192,47.128,22.072,22.072,0,0,1,47.128,69.192Z" transform="translate(0 0)"/></g></svg>